<svg xmlns="http://www.w3.org/2000/svg" xmlns:xlink="http://www.w3.org/1999/xlink"><symbol viewBox="0 0 24 12" id="chevron-up-white" xmlns="http://www.w3.org/2000/svg"><path d="M12 0c.1 0 .2 0 .3.1.1 0 .2.1.2.2l11.2 10.3c.2.1.2.3.2.5s-.1.4-.2.6c-.2.1-.4.2-.6.2-.2 0-.4-.1-.6-.2L11.4 1.3c-.2-.2-.3-.3-.3-.5s.1-.4.3-.5c.1-.1.2-.1.2-.2.2-.1.3-.1.4-.1zm.3.1c.1 0 .2.1.2.2.2.2.3.3.3.5s-.1.4-.3.5L1.4 11.8c-.2.1-.4.2-.6.2s-.4-.1-.6-.2c-.1-.2-.2-.4-.2-.6 0-.2.1-.4.2-.5L11.4.2c.1-.1.2-.1.2-.2h.4c.1 0 .2 0 .3.1z"/></symbol><symbol viewBox="0 0 478.448 478.448" id="icon-carousel-next" xmlns="http://www.w3.org/2000/svg"><path fill="#FFF" d="M131.659 0l-31.165 32.035 213.31 207.197-213.31 207.141 31.156 32.075 246.304-239.216z"/></symbol><symbol viewBox="0 0 370.814 370.814" id="icon-carousel-prev" xmlns="http://www.w3.org/2000/svg"><path fill="#FFF" d="M292.92 24.848L268.781 0 77.895 185.401l190.886 185.413 24.139-24.853-165.282-160.56z"/></symbol><symbol viewBox="0 0 27 27" id="icon-close" xmlns="http://www.w3.org/2000/svg"><path d="M12.462 13.713l-3.076 3.285a.915.915 0 00.012 1.25.82.82 0 001.195-.013L13.5 15.13l2.907 3.105a.82.82 0 001.195.013.914.914 0 00.012-1.25l-3.076-3.285c0-.095-.008-.193-.022-.285l3.24-3.423a.914.914 0 00-.006-1.25.82.82 0 00-1.195.007L13.5 11.99l-3.055-3.23a.818.818 0 00-1.195-.006.915.915 0 00-.006 1.25l3.24 3.422c-.014.092-.023.19-.022.285z"/></symbol><symbol viewBox="0 0 28 28" id="icon-facebook" xmlns="http://www.w3.org/2000/svg"><path d="M24.7 2H3.3C2.6 2 2 2.6 2 3.3v21.4c0 .7.6 1.3 1.3 1.3h11.5v-9.3h-3.1v-3.6h3.1v-2.7c0-3.1 1.9-4.8 4.7-4.8 1.3 0 2.5.1 2.8.1V9h-1.9c-1.5 0-1.8.7-1.8 1.8v2.3h3.6l-.5 3.6h-3.1V26h6.1c.7 0 1.3-.6 1.3-1.3V3.3c0-.7-.6-1.3-1.3-1.3z"/></symbol><symbol viewBox="0 0 169.063 169.063" id="icon-instagram" xmlns="http://www.w3.org/2000/svg"><path d="M122.406 0H46.654C20.929 0 0 20.93 0 46.655v75.752c0 25.726 20.929 46.655 46.654 46.655h75.752c25.727 0 46.656-20.93 46.656-46.655V46.655C169.063 20.93 148.133 0 122.406 0zm31.657 122.407c0 17.455-14.201 31.655-31.656 31.655H46.654C29.2 154.063 15 139.862 15 122.407V46.655C15 29.201 29.2 15 46.654 15h75.752c17.455 0 31.656 14.201 31.656 31.655v75.752z"/><path d="M84.531 40.97c-24.021 0-43.563 19.542-43.563 43.563 0 24.02 19.542 43.561 43.563 43.561s43.563-19.541 43.563-43.561c0-24.021-19.542-43.563-43.563-43.563zm0 72.123c-15.749 0-28.563-12.812-28.563-28.561 0-15.75 12.813-28.563 28.563-28.563s28.563 12.813 28.563 28.563c0 15.749-12.814 28.561-28.563 28.561zm45.39-84.842c-2.89 0-5.729 1.17-7.77 3.22a11.053 11.053 0 00-3.23 7.78c0 2.891 1.18 5.73 3.23 7.78 2.04 2.04 4.88 3.22 7.77 3.22 2.9 0 5.73-1.18 7.78-3.22 2.05-2.05 3.22-4.89 3.22-7.78 0-2.9-1.17-5.74-3.22-7.78-2.04-2.05-4.88-3.22-7.78-3.22z"/></symbol><symbol viewBox="0 0 28 28" id="icon-linkedin" xmlns="http://www.w3.org/2000/svg"><path d="M2.4 10h5v16h-5V10zm2.5-8c1.6 0 2.9 1.3 2.9 2.9 0 1.6-1.3 2.9-2.9 2.9C3.3 7.8 2 6.5 2 4.9 2 3.3 3.3 2 4.9 2M10.5 10h4.8v2.2h.1c.7-1.3 2.3-2.6 4.7-2.6 5 0 6 3.3 6 7.6V26h-5v-7.8c0-1.9 0-4.3-2.6-4.3s-3 2-3 4.1v8h-5V10z"/></symbol><symbol viewBox="0 0 24 18" id="icon-mail" xmlns="http://www.w3.org/2000/svg"><path d="M8.3 8.724L2 3.224v11.7l6.3-6.2zM20.8 2.124H3.2l8.8 7.6 8.8-7.6zM14.4 9.824l-2.4 2.1-2.4-2.1-6.4 6.3h17.7l-6.5-6.3zM15.7 8.724l6.3 6.3v-11.8l-6.3 5.5z"/></symbol><symbol viewBox="0 0 16 20" id="icon-marker" xmlns="http://www.w3.org/2000/svg"><path d="M12.9 1.7c-2-1.5-4.5-2-7-1.4C2.4 1.1 0 4.2 0 7.8c0 .8.1 1.6.3 2.3.2.8.6 1.5 1 2.1.1.2 3.7 5 5.3 7.1.4.4.9.7 1.4.7.5 0 1-.3 1.4-.7.9-1.2 5.2-6.9 5.3-7.2.4-.7.8-1.3 1-2.1.2-.6.3-1.4.3-2.2 0-2.4-1.1-4.6-3.1-6.1zm1.3 8c-.2.6-.5 1.2-.8 1.7-.2.2-3.2 4.4-5.3 7.1 0 .1-.1.1-.2 0-2-2.7-5.1-6.8-5.3-7.1-.3-.6-.6-1.1-.8-1.8-.2-.5-.3-1.1-.3-1.8 0-3 1.9-5.4 4.8-6.1 2-.5 4.1-.1 5.7 1.1 1.6 1.2 2.5 3 2.5 5 0 .7-.1 1.3-.3 1.9z"/><path d="M8 3.9c-2.2 0-4 1.7-4 3.9s1.8 3.9 4 3.9 4-1.7 4-3.9-1.8-3.9-4-3.9zm0 6.3c-1.4 0-2.5-1.1-2.5-2.4S6.6 5.4 8 5.4s2.5 1.1 2.5 2.4c-.1 1.3-1.1 2.4-2.5 2.4z"/></symbol><symbol viewBox="0 0 22 20" id="icon-menu" xmlns="http://www.w3.org/2000/svg"><path d="M2 0C.9 0 0 .9 0 2s.9 2 2 2h18c1.1 0 2-.9 2-2s-.9-2-2-2H2zm0 8c-1.1 0-2 .9-2 2s.9 2 2 2h18c1.1 0 2-.9 2-2s-.9-2-2-2H2zm0 8c-1.1 0-2 .9-2 2s.9 2 2 2h18c1.1 0 2-.9 2-2s-.9-2-2-2H2z"/></symbol><symbol viewBox="0 0 10 10" id="icon-minus-grey" xmlns="http://www.w3.org/2000/svg"><path d="M5.7 4.3h4.2v1.4H.1V4.3h4.2"/></symbol><symbol viewBox="0 0 25.2 25.4" id="icon-mute" xmlns="http://www.w3.org/2000/svg"><path d="M15.8 12.7c0-1.3-.7-2.4-1.8-2.9v1.6l1.8 1.8v-.5zm1.8 0c0 .6-.1 1.3-.4 1.9l1.1 1.1c.5-.9.7-1.9.7-3 0-3.1-2.2-5.7-5-6.3v1.5c2.1.6 3.6 2.5 3.6 4.8zM7 6.2l-.9 1 3.4 3.4H6.1v4.3H9l3.6 3.6v-4.8l3.1 3.1c-.5.4-1 .6-1.7.9v1.5c1-.2 1.9-.6 2.7-1.3l1.4 1.4.9-.9-6.5-6.5L7 6.2zm5.6.8l-1.5 1.5 1.5 1.5V7z" fill="#686d83"/></symbol><symbol viewBox="0 0 30 30" id="icon-pause" xmlns="http://www.w3.org/2000/svg"><style>.mst0{fill:#686d83}</style><path class="mst0" d="M9 9h5v12H9zm7 0h5v12h-5z"/></symbol><symbol viewBox="-471 273 16 16" id="icon-phone" xmlns="http://www.w3.org/2000/svg"><path fill="#54575A" d="M-455 285.6c0 .3 0 .5-.2.7l-2.3 2.2c-.1.1-.2.2-.4.3-.2.1-.3.1-.5.2h-.3c-.2 0-.6 0-1-.1-.5-.1-1.1-.3-1.8-.5-.7-.3-1.5-.7-2.4-1.3s-1.8-1.4-2.8-2.4c-.8-.8-1.4-1.5-2-2.2-.5-.7-.9-1.4-1.3-2-.2-.6-.4-1.2-.6-1.7-.2-.5-.3-.9-.3-1.2-.1-.4-.1-.7-.1-.9v-.3c0-.2.1-.3.2-.5s.2-.3.3-.4l2.3-2.3c.1-.1.3-.2.5-.2.1 0 .3 0 .4.1l.3.3 1.8 3.4c.1.2.1.4.1.6 0 .2-.1.4-.3.5l-.9.9s0 .1-.1.1v.1c0 .2.1.5.3.8.1.3.3.6.6 1s.7.8 1.2 1.3 1 .9 1.4 1.2c.4.3.7.5 1 .6.3.1.5.2.6.2h.3c.1 0 .1 0 .1-.1l1-1c.2-.2.4-.3.7-.3.2 0 .3 0 .5.1l3.3 1.9c.2.5.3.7.4.9z"/></symbol><symbol viewBox="0 0 30 30" id="icon-play" xmlns="http://www.w3.org/2000/svg"><path fill="#686d83" d="M21 15L9 8.5v13z"/></symbol><symbol viewBox="0 0 10 10" id="icon-plus-grey" xmlns="http://www.w3.org/2000/svg"><path d="M9.9 5.7H5.7v4.2H4.3V5.7H.1V4.3h4.2V.1h1.4v4.2h4.2v1.4z"/></symbol><symbol viewBox="0 0 34 28" id="icon-twitter" xmlns="http://www.w3.org/2000/svg"><path d="M11.4 26c11.3 0 17.5-9.2 17.5-17.2V8c1.2-.9 2.2-1.9 3.1-3.1-1.1.5-2.3.8-3.5 1 1.3-.7 2.2-1.9 2.7-3.4-1.2.7-2.5 1.2-3.9 1.5-1.2-1.3-2.8-2-4.5-2-3.4 0-6.2 2.7-6.2 6.1 0 .5.1.9.2 1.4-5.1-.3-9.7-2.7-12.7-6.4-.5.9-.8 1.9-.8 3.1 0 2.1 1.1 4 2.7 5-1 0-2-.3-2.8-.8v.1c0 2.9 2.1 5.4 4.9 5.9-.5.1-1.1.2-1.6.2-.4 0-.8 0-1.2-.1.8 2.4 3.1 4.2 5.7 4.2-2.1 1.6-4.8 2.6-7.6 2.6-.5 0-1 0-1.5-.1C4.7 25 8 26 11.4 26"/></symbol><symbol viewBox="0 0 34.6 27" id="icon-unmute" xmlns="http://www.w3.org/2000/svg"><path d="M16.8 18.8c0 .3-.2.6-.4.7-.1 0-.2.1-.3.1-.2 0-.3-.1-.5-.2L11.5 16H9.3c-.4 0-.7-.3-.7-.7v-3c0-.4.3-.7.7-.7h2.2l4.1-3.4c.2-.2.5-.2.8-.1.3.1.4.4.4.7v10zm2.8-1.2c-.2 0-.4-.1-.6-.2v-.1c-.3-.3-.3-.7-.1-1 .6-.8.9-1.6.9-2.6s-.3-1.9-1-2.7c-.2-.3-.2-.7.1-1l.1-.1c.1-.1.3-.2.6-.2.2 0 .4.1.5.3.9 1.1 1.3 2.4 1.3 3.8 0 1.3-.4 2.5-1.2 3.6-.1.1-.3.2-.6.2zm3.1 2.3c-.1.2-.3.3-.5.3s-.4-.1-.5-.2l-.1-.1c-.3-.3-.3-.7 0-1 1.2-1.4 1.9-3.2 1.9-5.1 0-1.9-.7-3.8-2-5.2-.3-.3-.2-.7 0-1l.1-.1c.1-.1.3-.2.5-.2s.4.1.5.2c1.6 1.7 2.4 4 2.4 6.3 0 2.2-.8 4.4-2.3 6.1z" fill="#686d83"/></symbol><symbol viewBox="0 0 32 24" id="icon-youtube" xmlns="http://www.w3.org/2000/svg"><path d="M29.4 5.1c-.3-1.2-1.3-2.2-2.5-2.5C24.8 2 16 2 16 2s-8.8 0-10.9.6c-1.2.3-2.2 1.3-2.5 2.5C2 7.4 2 12 2 12s0 4.6.6 6.9c.3 1.2 1.3 2.2 2.5 2.5C7.2 22 16 22 16 22s8.8 0 10.9-.6c1.2-.3 2.2-1.3 2.5-2.5.6-2.3.6-6.9.6-6.9s0-4.6-.6-6.9zM13.1 16.2V7.8l7.3 4.2-7.3 4.2z"/></symbol></svg>