<svg xmlns="http://www.w3.org/2000/svg" width="16" height="20"><path d="M12.9 1.7c-2-1.5-4.5-2-7-1.4C2.4 1.1 0 4.2 0 7.8c0 .8.1 1.6.3 2.3.2.8.6 1.5 1 2.1.1.2 3.7 5 5.3 7.1.4.4.9.7 1.4.7.5 0 1-.3 1.4-.7.9-1.2 5.2-6.9 5.3-7.2.4-.7.8-1.3 1-2.1.2-.6.3-1.4.3-2.2 0-2.4-1.1-4.6-3.1-6.1zm1.3 8c-.2.6-.5 1.2-.8 1.7-.2.2-3.2 4.4-5.3 7.1 0 .1-.1.1-.2 0-2-2.7-5.1-6.8-5.3-7.1-.3-.6-.6-1.1-.8-1.8-.2-.5-.3-1.1-.3-1.8 0-3 1.9-5.4 4.8-6.1 2-.5 4.1-.1 5.7 1.1 1.6 1.2 2.5 3 2.5 5 0 .7-.1 1.3-.3 1.9z"/><path d="M8 3.9c-2.2 0-4 1.7-4 3.9s1.8 3.9 4 3.9 4-1.7 4-3.9-1.8-3.9-4-3.9zm0 6.3c-1.4 0-2.5-1.1-2.5-2.4S6.6 5.4 8 5.4s2.5 1.1 2.5 2.4c-.1 1.3-1.1 2.4-2.5 2.4z"/></svg>