<?xml version="1.0" encoding="utf-8"?>
<!-- Generator: Adobe Illustrator 22.0.0, SVG Export Plug-In . SVG Version: 6.00 Build 0)  -->
<svg version="1.1" id="Capa_1" xmlns="http://www.w3.org/2000/svg" xmlns:xlink="http://www.w3.org/1999/xlink" x="0px" y="0px"
	 viewBox="0 0 25.2 25.4" style="enable-background:new 0 0 25.2 25.4;" xml:space="preserve">
<g>
	<g id="volume-off">
		<path style="fill:#686D83;" d="M15.8,12.7c0-1.3-0.7-2.4-1.8-2.9v1.6l1.8,1.8C15.8,13,15.8,12.8,15.8,12.7z M17.6,12.7
			c0,0.6-0.1,1.3-0.4,1.9l1.1,1.1c0.5-0.9,0.7-1.9,0.7-3c0-3.1-2.2-5.7-5-6.3v1.5C16.1,8.5,17.6,10.4,17.6,12.7z M7,6.2L6.1,7.2
			l3.4,3.4H6.1v4.3H9l3.6,3.6v-4.8l3.1,3.1c-0.5,0.4-1,0.6-1.7,0.9v1.5c1-0.2,1.9-0.6,2.7-1.3l1.4,1.4l0.9-0.9l-6.5-6.5L7,6.2z
			 M12.6,7l-1.5,1.5l1.5,1.5V7z"/>
	</g>
</g>
</svg>
