<svg xmlns="http://www.w3.org/2000/svg" width="24" height="36" viewBox="0 0 24 36">
<style type="text/css">
	.st0{enable-background:new;}
	.st1{fill:#686868;}
	.st2{fill:#FFFFFF;}
</style>
<g class="st0">
	<g>
		<path class="st1" d="M12,35.5c-1,0-1.8-0.6-2.2-1.4L1.2,16c-0.7-1.3-0.7-2.9-0.7-4C0.5,5.7,5.7,0.5,12,0.5
			c6.3,0,11.5,5.2,11.5,11.5c0,1.1-0.1,2.6-0.7,3.9l-8.5,18.2C13.8,34.9,13,35.5,12,35.5z M12,6.5C9,6.5,6.5,9,6.5,12
			S9,17.5,12,17.5s5.5-2.5,5.5-5.5S15,6.5,12,6.5z"/>
		<path class="st2" d="M12,1c6.1,0,11,4.9,11,11c0,1-0.1,2.5-0.7,3.7l-8.5,18.1c-0.3,0.7-1,1.1-1.8,1.1s-1.5-0.4-1.8-1.1L1.7,15.7
			C1.1,14.5,1,13,1,12C1,5.9,5.9,1,12,1 M12,18c3.3,0,6-2.7,6-6s-2.7-6-6-6s-6,2.7-6,6S8.7,18,12,18 M12,0C5.4,0,0,5.4,0,12
			c0,1.4,0.1,2.9,0.8,4.2l8.5,18.1C9.8,35.4,10.9,36,12,36s2.2-0.6,2.7-1.7l8.5-18.1c0.6-1.3,0.8-2.8,0.8-4.2C24,5.4,18.6,0,12,0
			L12,0z M12,17c-2.8,0-5-2.2-5-5s2.2-5,5-5c2.8,0,5,2.2,5,5S14.8,17,12,17L12,17z"/>
	</g>
</g>
</svg>
