<svg xmlns="http://www.w3.org/2000/svg" width="18" height="18" viewBox="0 0 18 18">
<style type="text/css">
	.st0{enable-background:new;}
	.st1{fill:#686868;}
</style>
<g transform="translate(-299 -128)">
	<g class="st0">
		<path class="st1" d="M315.6,146c-0.4,0-0.7-0.2-1-0.4l-3.7-3.7c-1.3,0.9-2.8,1.3-4.3,1.3c-4.2,0-7.6-3.4-7.6-7.6
			c0-4.2,3.4-7.6,7.6-7.6c4.2,0,7.6,3.4,7.6,7.6c0,1.5-0.5,3.1-1.3,4.3l3.7,3.7c0.2,0.2,0.4,0.6,0.4,1
			C317,145.4,316.4,146,315.6,146z M306.6,130.8c-2.7,0-4.8,2.2-4.8,4.8c0,2.7,2.2,4.8,4.8,4.8c2.7,0,4.8-2.2,4.8-4.8
			C311.5,132.9,309.3,130.8,306.6,130.8z"/>
	</g>
</g>
</svg>
