<svg xmlns="http://www.w3.org/2000/svg" width="20" height="16" viewBox="0 0 20 16">
<style type="text/css">
	.st0{fill:#1DA1F2;}
</style>
<g>
	<path class="st0" d="M18,4c0,0.2,0,0.4,0,0.5C18,9.9,13.8,16,6.3,16C4,16,1.8,15.3,0,14.2c0.3,0,0.6,0,1,0c1.9,0,3.7-0.6,5.1-1.7
		c-1.8,0-3.4-1.2-3.9-2.8c0.2,0,0.5,0.1,0.8,0.1c0.4,0,0.7,0,1.1-0.1c-1.8-0.4-3.3-2-3.3-4l0,0C1.3,5.9,2,6.1,2.7,6.1
		c-1.1-0.7-1.8-2-1.8-3.4c0-0.7,0.2-1.4,0.6-2c2,2.4,5.1,4,8.5,4.2C9.8,4.7,9.8,4.3,9.8,4c0-2.2,1.8-4,4.1-4c1.2,0,2.2,0.5,3,1.3
		c0.9-0.2,1.8-0.5,2.7-1c-0.3,0.9-0.9,1.7-1.8,2.2c0.8-0.1,1.6-0.3,2.3-0.6C19.4,2.7,18.8,3.4,18,4z"/>
</g>
</svg>
