<svg xmlns="http://www.w3.org/2000/svg" width="16" height="16" viewBox="-471 273 16 16"><path fill="#54575A" d="M-455 285.6c0 .3 0 .5-.2.7l-2.3 2.2c-.1.1-.2.2-.4.3-.2.1-.3.1-.5.2h-.3c-.2 0-.6 0-1-.1-.5-.1-1.1-.3-1.8-.5-.7-.3-1.5-.7-2.4-1.3s-1.8-1.4-2.8-2.4c-.8-.8-1.4-1.5-2-2.2-.5-.7-.9-1.4-1.3-2-.2-.6-.4-1.2-.6-1.7-.2-.5-.3-.9-.3-1.2-.1-.4-.1-.7-.1-.9v-.3c0-.2.1-.3.2-.5s.2-.3.3-.4l2.3-2.3c.1-.1.3-.2.5-.2.1 0 .3 0 .4.1l.3.3 1.8 3.4c.1.2.1.4.1.6 0 .2-.1.4-.3.5l-.9.9s0 .1-.1.1v.1c0 .2.1.5.3.8.1.3.3.6.6 1s.7.8 1.2 1.3 1 .9 1.4 1.2c.4.3.7.5 1 .6.3.1.5.2.6.2h.3c.1 0 .1 0 .1-.1l1-1c.2-.2.4-.3.7-.3.2 0 .3 0 .5.1l3.3 1.9c.2.5.3.7.4.9z"/></svg>