<svg xmlns="http://www.w3.org/2000/svg" width="34px" height="24px" viewBox="0 0 34 28">
<g>
	<path d="M11.4,26c11.3,0,17.5-9.2,17.5-17.2c0-0.3,0-0.5,0-0.8c1.2-0.9,2.2-1.9,3.1-3.1c-1.1,0.5-2.3,0.8-3.5,1
		c1.3-0.7,2.2-1.9,2.7-3.4c-1.2,0.7-2.5,1.2-3.9,1.5C26.1,2.7,24.5,2,22.8,2c-3.4,0-6.2,2.7-6.2,6.1c0,0.5,0.1,0.9,0.2,1.4
		C11.7,9.2,7.1,6.8,4.1,3.1C3.6,4,3.3,5,3.3,6.2c0,2.1,1.1,4,2.7,5c-1,0-2-0.3-2.8-0.8c0,0,0,0.1,0,0.1c0,2.9,2.1,5.4,4.9,5.9
		c-0.5,0.1-1.1,0.2-1.6,0.2c-0.4,0-0.8,0-1.2-0.1c0.8,2.4,3.1,4.2,5.7,4.2c-2.1,1.6-4.8,2.6-7.6,2.6c-0.5,0-1,0-1.5-0.1
		C4.7,25,8,26,11.4,26"/>
</g>
</svg>
