<svg xmlns="http://www.w3.org/2000/svg" width="22" height="15.5" viewBox="0 0 22 15.5">
<style type="text/css">
	.st0{fill:#FF0000;}
	.st1{fill:#FFFFFF;}
</style>
<g id="youtube" transform="translate(-8 -34)">
	<path id="Path_4616" class="st0" d="M29.5,36.4c-0.3-1-1-1.7-1.9-2C25.9,34,19,34,19,34s-6.9,0-8.6,0.5c-0.9,0.3-1.7,1-1.9,2
		c-0.6,3.5-0.6,7.1,0,10.7c0.3,1,1,1.7,1.9,2c1.7,0.5,8.6,0.5,8.6,0.5s6.9,0,8.6-0.5c0.9-0.3,1.7-1,1.9-2
		C30.2,43.6,30.2,39.9,29.5,36.4L29.5,36.4z"/>
	<path id="Path_4617" class="st1" d="M16.7,45l5.8-3.3l-5.8-3.3V45z"/>
</g>
</svg>
