<svg xmlns="http://www.w3.org/2000/svg" width="21" height="21" viewBox="0 0 21 21">
<style type="text/css">
	.st0{fill-rule:evenodd; clip-rule:evenodd; fill:#0073B0;}
</style>
<path id="Path_4615" class="st0" d="M1.7,21h17.5c1,0,1.7-0.8,1.7-1.7V1.7c0-1-0.8-1.7-1.7-1.7H1.7C0.8,0,0,0.8,0,1.7v17.5
	C0,20.2,0.8,21,1.7,21z M8,8H11v1.5c0.7-1.1,1.8-1.7,3.1-1.6c2.9,0,3.9,1.3,3.9,4.4v5.6h-3.1v-5c0-1.6-0.3-2.5-1.5-2.5
	c-1.6,0-2.2,1.2-2.2,2.5v5H8L8,8z M3.1,17.9h3.1V8H3.1V17.9z M6.5,4.6c0,1-0.8,1.9-1.9,1.9c-1,0-1.9-0.8-1.9-1.9
	c0-1,0.8-1.9,1.9-1.9C5.7,2.7,6.5,3.6,6.5,4.6z"/>
</svg>
