<?xml version="1.0" encoding="utf-8"?>
<!-- Generator: Adobe Illustrator 22.0.0, SVG Export Plug-In . SVG Version: 6.00 Build 0)  -->
<svg version="1.1" id="Capa_1" xmlns="http://www.w3.org/2000/svg" xmlns:xlink="http://www.w3.org/1999/xlink" x="0px" y="0px"
	 viewBox="0 0 34.6 27" style="enable-background:new 0 0 34.6 27;" xml:space="preserve">
<g>
	<path style="fill:#686D83;" d="M16.8,18.8c0,0.3-0.2,0.6-0.4,0.7c-0.1,0-0.2,0.1-0.3,0.1c-0.2,0-0.3-0.1-0.5-0.2L11.5,16H9.3
		c-0.4,0-0.7-0.3-0.7-0.7v-3c0-0.4,0.3-0.7,0.7-0.7h2.2l4.1-3.4c0.2-0.2,0.5-0.2,0.8-0.1c0.3,0.1,0.4,0.4,0.4,0.7L16.8,18.8
		L16.8,18.8z M19.6,17.6C19.6,17.6,19.6,17.6,19.6,17.6c-0.2,0-0.4-0.1-0.6-0.2L19,17.3c-0.3-0.3-0.3-0.7-0.1-1
		c0.6-0.8,0.9-1.6,0.9-2.6c0-1-0.3-1.9-1-2.7c-0.2-0.3-0.2-0.7,0.1-1l0.1-0.1c0.1-0.1,0.3-0.2,0.6-0.2c0.2,0,0.4,0.1,0.5,0.3
		c0.9,1.1,1.3,2.4,1.3,3.8c0,1.3-0.4,2.5-1.2,3.6C20.1,17.5,19.9,17.6,19.6,17.6z M22.7,19.9c-0.1,0.2-0.3,0.3-0.5,0.3c0,0,0,0,0,0
		c-0.2,0-0.4-0.1-0.5-0.2l-0.1-0.1c-0.3-0.3-0.3-0.7,0-1c1.2-1.4,1.9-3.2,1.9-5.1c0-1.9-0.7-3.8-2-5.2c-0.3-0.3-0.2-0.7,0-1l0.1-0.1
		c0.1-0.1,0.3-0.2,0.5-0.2c0.2,0,0.4,0.1,0.5,0.2c1.6,1.7,2.4,4,2.4,6.3C25,16,24.2,18.2,22.7,19.9z"/>
</g>
</svg>
