<svg xmlns="http://www.w3.org/2000/svg" width="20" height="14" viewBox="0 0 20 14">
<style type="text/css">
	.st0{fill:#FFFFFF;}
	.st1{fill:#696969;}
</style>
<path class="st0" d="M14.9,2H1C0.4,2,0,1.5,0,1v0c0-0.5,0.4-1,1-1h13.9c0.5,0,1,0.4,1,1v0C15.9,1.5,15.4,2,14.9,2z"/>
<path class="st1" d="M19,2H1C0.4,2,0,1.6,0,1v0c0-0.5,0.4-1,1-1h18c0.5,0,1,0.4,1,1v0C20,1.6,19.6,2,19,2z"/>
<path class="st1" d="M19,8H1C0.4,8,0,7.6,0,7v0c0-0.5,0.4-1,1-1h18c0.5,0,1,0.4,1,1v0C20,7.6,19.6,8,19,8z"/>
<path class="st1" d="M19,14H1c-0.5,0-1-0.4-1-1v0c0-0.6,0.4-1,1-1h18c0.5,0,1,0.4,1,1v0C20,13.5,19.6,14,19,14z"/>
</svg>
